<svg fill="none" height="26" viewBox="0 0 26 26" width="26" xmlns="http://www.w3.org/2000/svg"><path d="m19.0045 1.03811-17.18545 4.60482c-.58922.15788-.938648.76311-.78077 1.35232l4.60504 17.18625c.15766.5884.76289.9378 1.35211.7799l9.25277-2.4792-2.0046-7.4811-2.5178.6746-.7812-2.9155 2.5178-.6746-.5761-2.14999c-.6686-2.49531.4911-4.26234 2.7176-4.85891 1.0665-.28578 2.0039-.45154 2.2806-.48773l.6988 2.608-1.5436.41448c-1.2107.32439-1.2907.96269-1.0646 1.80626l.4988 1.86179 2.8873-.7736.4053 3.0162-2.5114.6729 2.0044 7.4803 4.923-1.3191c.5876-.1575.937-.7627.7791-1.3519l-4.6048-17.18543c-.1579-.58921-.7631-.93864-1.3523-.78076z" fill="#c51936"/></svg>