<svg width="24" height="24" viewBox="0 0 24 24" fill="none" xmlns="http://www.w3.org/2000/svg">
<path d="M12.999 3.86359C15.6491 4.18898 15.9622 4.2375 17.0035 4.41405C19.6782 4.86673 20.7779 6.29724 20.5725 8.98222C20.492 10.0344 20.4625 10.3498 20.1371 12.9999C19.8116 15.6509 19.7632 15.9631 19.5876 17.0036C19.1368 19.656 17.7267 20.7809 15.0194 20.5727C13.9664 20.4921 13.6525 20.4636 11.0008 20.138C8.35069 19.8127 8.0376 19.7641 6.99718 19.5877C4.3159 19.1334 3.22353 17.6979 3.42823 15.0187C3.50873 13.9665 3.53729 13.6518 3.86279 11.0009C4.18818 8.35077 4.23742 8.03861 4.41314 6.99726C4.86411 4.34327 6.274 3.22005 8.98131 3.42821C10.0342 3.50964 10.3489 3.5382 12.999 3.86359ZM13.2187 2.07453C10.5231 1.74355 10.1842 1.7137 9.11962 1.63167C5.49471 1.35451 3.24586 3.10852 2.63744 6.69611C2.45854 7.74966 2.40553 8.08571 2.07455 10.7813C1.74357 13.4769 1.71362 13.8166 1.63159 14.8812C1.35443 18.5061 3.10844 20.755 6.69603 21.3634C7.74968 21.5415 8.08573 21.5945 10.7813 21.9255C13.4769 22.2564 13.8166 22.2864 14.8812 22.3684C18.5028 22.6452 20.7566 20.8918 21.3626 17.3039C21.5414 16.2511 21.5945 15.9143 21.9255 13.2187C22.2565 10.5231 22.2863 10.1842 22.3683 9.1196C22.6484 5.49841 20.8923 3.24594 17.3047 2.63752C16.2512 2.45862 15.9143 2.40551 13.2187 2.07453V2.07453ZM12.6258 6.90327C9.81112 6.55766 7.24889 8.5595 6.90329 11.3742C6.55769 14.1889 8.55942 16.7519 11.3741 17.0975C14.1888 17.4431 16.751 15.4413 17.0967 12.6258C17.4423 9.81109 15.4405 7.24887 12.6258 6.90327ZM11.5938 15.3085C9.76667 15.0841 8.46708 13.4217 8.69152 11.5938C8.91587 9.76665 10.5791 8.46716 12.4062 8.6915C14.2334 8.91584 15.5328 10.5791 15.3085 12.4062C15.0841 14.2342 13.4209 15.5328 11.5938 15.3085ZM18.0953 6.1618C17.4369 6.08096 16.8379 6.54895 16.7571 7.20651C16.6764 7.86407 17.1444 8.46307 17.8028 8.54391C18.4604 8.62465 19.0585 8.15656 19.1393 7.499C19.22 6.84143 18.7528 6.24254 18.0953 6.1618Z" fill="#C51936"/>
</svg>
